<svg width="20" height="20" viewBox="0 0 20 20" fill="none" xmlns="http://www.w3.org/2000/svg">
<path fill-rule="evenodd" clip-rule="evenodd" d="M1.52803 5.69488C0.826312 6.13345 0.400024 6.90258 0.400024 7.73008V17.1999C0.400024 18.5254 1.47454 19.5999 2.80002 19.5999H17.2C18.5255 19.5999 19.6 18.5254 19.6 17.1999V7.73008C19.6 6.90258 19.1737 6.13346 18.472 5.69488L11.272 1.19488C10.4938 0.708477 9.50628 0.708476 8.72803 1.19488L1.52803 5.69488ZM4.66566 8.60154C4.11423 8.23392 3.36919 8.38292 3.00156 8.93436C2.63394 9.48579 2.78295 10.2308 3.33438 10.5985L9.33438 14.5985C9.73746 14.8672 10.2626 14.8672 10.6657 14.5985L16.6657 10.5985C17.2171 10.2308 17.3661 9.48579 16.9985 8.93436C16.6309 8.38292 15.8858 8.23392 15.3344 8.60154L10 12.1578L4.66566 8.60154Z" fill="#101010"/>
</svg>
