<svg width="28" height="28" viewBox="0 0 28 28" fill="none" xmlns="http://www.w3.org/2000/svg">
<g filter="url(#filter0_d_247_4454)">
<path d="M23.98 9.40995C23.64 3.60995 18.37 -0.860038 12.3 0.139962C8.12004 0.829962 4.77005 4.21994 4.12005 8.39994C3.74005 10.8199 4.24007 13.1099 5.33007 14.9999L4.44006 18.3099C4.24006 19.0599 4.93004 19.7399 5.67004 19.5299L8.93005 18.63C10.41 19.5 12.14 19.9999 13.99 19.9999C19.63 19.9999 24.31 15.03 23.98 9.40995ZM18.8801 13.7199C18.7901 13.8999 18.68 14.07 18.54 14.23C18.29 14.5 18.02 14.7 17.72 14.82C17.42 14.95 17.09 15.01 16.74 15.01C16.23 15.01 15.68 14.89 15.11 14.64C14.53 14.39 13.9601 14.0599 13.3901 13.6499C12.8101 13.2299 12.2701 12.7599 11.7501 12.2499C11.2301 11.7299 10.77 11.1799 10.35 10.6099C9.94003 10.0399 9.61005 9.46994 9.37005 8.89994C9.13005 8.32994 9.01006 7.77996 9.01006 7.25996C9.01006 6.91996 9.07006 6.58996 9.19006 6.28996C9.31006 5.97996 9.50007 5.69996 9.77007 5.44996C10.0901 5.12996 10.4401 4.97996 10.8101 4.97996C10.9501 4.97996 11.09 5.00995 11.22 5.06995C11.35 5.12995 11.4701 5.21995 11.5601 5.34995L12.72 6.98994C12.81 7.11994 12.88 7.22994 12.92 7.33994C12.97 7.44994 12.99 7.54994 12.99 7.64994C12.99 7.76994 12.9501 7.88996 12.8801 8.00996C12.8101 8.12996 12.72 8.24994 12.6 8.36994L12.22 8.76994C12.16 8.82994 12.1401 8.88995 12.1401 8.96995C12.1401 9.00995 12.15 9.04994 12.16 9.08994C12.18 9.12994 12.1901 9.15995 12.2001 9.18995C12.2901 9.35995 12.45 9.56993 12.67 9.82993C12.9 10.0899 13.1401 10.3599 13.4001 10.6199C13.6701 10.8899 13.9301 11.1299 14.2001 11.3599C14.4601 11.5799 14.68 11.73 14.85 11.82C14.88 11.83 14.9101 11.8499 14.9401 11.8599C14.9801 11.8799 15.0201 11.88 15.0701 11.88C15.1601 11.88 15.2201 11.85 15.2801 11.79L15.66 11.41C15.79 11.28 15.9101 11.19 16.0201 11.13C16.1401 11.06 16.2501 11.0199 16.3801 11.0199C16.4801 11.0199 16.5801 11.0399 16.6901 11.0899C16.8001 11.1399 16.92 11.2 17.04 11.29L18.7001 12.4699C18.8301 12.5599 18.92 12.67 18.98 12.79C19.03 12.92 19.0601 13.0399 19.0601 13.1799C19.0001 13.3499 18.9601 13.5399 18.8801 13.7199Z" fill="#101010"/>
</g>
<defs>
<filter id="filter0_d_247_4454" x="-0.00610352" y="-0.000488281" width="28.0026" height="28.0005" filterUnits="userSpaceOnUse" color-interpolation-filters="sRGB">
<feFlood flood-opacity="0" result="BackgroundImageFix"/>
<feColorMatrix in="SourceAlpha" type="matrix" values="0 0 0 0 0 0 0 0 0 0 0 0 0 0 0 0 0 0 127 0" result="hardAlpha"/>
<feOffset dy="4"/>
<feGaussianBlur stdDeviation="2"/>
<feComposite in2="hardAlpha" operator="out"/>
<feColorMatrix type="matrix" values="0 0 0 0 0 0 0 0 0 0 0 0 0 0 0 0 0 0 0.25 0"/>
<feBlend mode="normal" in2="BackgroundImageFix" result="effect1_dropShadow_247_4454"/>
<feBlend mode="normal" in="SourceGraphic" in2="effect1_dropShadow_247_4454" result="shape"/>
</filter>
</defs>
</svg>
